<?xml version="1.0" encoding="UTF-8" standalone="no"?>
<svg
   viewBox="0 0 378.57373 398.32886"
   height="398.32886"
   width="378.57373"
   xml:space="preserve"
   id="svg2"
   version="1.1"
   xmlns="http://www.w3.org/2000/svg"
   xmlns:svg="http://www.w3.org/2000/svg"
   xmlns:rdf="http://www.w3.org/1999/02/22-rdf-syntax-ns#"
   xmlns:cc="http://creativecommons.org/ns#"
   xmlns:dc="http://purl.org/dc/elements/1.1/"><metadata
     id="metadata8"><rdf:RDF><cc:Work
         rdf:about=""><dc:format>image/svg+xml</dc:format><dc:type
           rdf:resource="http://purl.org/dc/dcmitype/StillImage" /></cc:Work></rdf:RDF></metadata><defs
     id="defs6"><filter
       style="color-interpolation-filters:sRGB"
       id="filter82"
       x="-0.013241725"
       y="-0.012568484"
       width="1.0264834"
       height="1.025137"><feGaussianBlur
         stdDeviation="2.0348453"
         id="feGaussianBlur82" /></filter><filter
       style="color-interpolation-filters:sRGB"
       id="filter83"
       x="-0.035311084"
       y="-0.21184629"
       width="1.0706222"
       height="1.4236926"><feGaussianBlur
         stdDeviation="2.0348453"
         id="feGaussianBlur83" /></filter><filter
       style="color-interpolation-filters:sRGB"
       id="filter84"
       x="-0.021186622"
       y="-0.21196306"
       width="1.0423732"
       height="1.4239261"><feGaussianBlur
         stdDeviation="2.0348453"
         id="feGaussianBlur84" /></filter><filter
       style="color-interpolation-filters:sRGB"
       id="filter85"
       x="-0.021186622"
       y="-0.21184077"
       width="1.0423732"
       height="1.4236815"><feGaussianBlur
         stdDeviation="2.0348453"
         id="feGaussianBlur85" /></filter><filter
       style="color-interpolation-filters:sRGB"
       id="filter86"
       x="-0.021186622"
       y="-0.21196306"
       width="1.0423732"
       height="1.4239261"><feGaussianBlur
         stdDeviation="2.0348453"
         id="feGaussianBlur86" /></filter><filter
       style="color-interpolation-filters:sRGB"
       id="filter87"
       x="-0.035311186"
       y="-0.21184077"
       width="1.0706224"
       height="1.4236815"><feGaussianBlur
         stdDeviation="2.0348453"
         id="feGaussianBlur87" /></filter></defs><path
     id="path14"
     style="fill:#474747;fill-opacity:0.27794;fill-rule:nonzero;stroke:none;stroke-width:0.139289;filter:url(#filter82)"
     d="m 267.59882,330.51428 -4.8194,2.4654 c -22.8727,11.7143 -47.5993,17.6619 -73.4932,17.6619 -88.9697,0 -161.351404,-72.3886 -161.351404,-161.3527 0,-88.9641 72.381704,-161.352799 161.351404,-161.352799 88.9711,0 161.3528,72.388699 161.3528,161.352799 0,38.2767 -13.6406,75.3834 -38.4133,104.4809 l -3.8402,4.5269 13.9123,55.6461 z m 106.0911,-141.2254 c 0,-49.2527 -19.1815,-95.566399 -54.0122,-130.388799 -34.8279,-34.8362 -81.1346,-54.0164008 -130.3915,-54.0164008 -49.2555,0 -95.560804,19.1802008 -130.391504,54.0164008 -34.8293,34.8224 -54.0108994,81.136099 -54.0108994,130.388799 0,49.2666 19.1815994,95.5664 54.0108994,130.3887 34.8279,34.8363 81.136004,54.0164 130.391504,54.0164 27.7436,0 54.3228,-5.9894 79.094,-17.7872 l 87.5517,37.5384 -22.3392,-89.368 c 25.8995,-32.5241 40.0972,-73.0573 40.0972,-114.7883" /><path
     id="path15"
     style="fill:#474747;fill-opacity:0.27794;fill-rule:nonzero;stroke:none;stroke-width:0.13434;filter:url(#filter83)"
     d="m 120.13712,85.557781 h 138.303 v 23.052699 h -138.303 V 85.557781" /><path
     id="path16"
     style="fill:#474747;fill-opacity:0.27794;fill-rule:nonzero;stroke:none;stroke-width:0.133333;filter:url(#filter84)"
     d="M 74.036816,131.65988 H 304.54212 v 23.04 H 74.036816 v -23.04" /><path
     id="path17"
     style="fill:#474747;fill-opacity:0.27794;fill-rule:nonzero;stroke:none;stroke-width:0.133333;filter:url(#filter85)"
     d="M 74.036816,177.75318 H 304.54212 v 23.0533 H 74.036816 v -23.0533" /><path
     id="path18"
     style="fill:#474747;fill-opacity:0.27794;fill-rule:nonzero;stroke:none;stroke-width:0.133333;filter:url(#filter86)"
     d="M 74.036816,223.85988 H 304.54212 v 23.04 H 74.036816 v -23.04" /><path
     id="path19"
     style="fill:#474747;fill-opacity:0.27794;fill-rule:nonzero;stroke:none;stroke-width:0.133333;filter:url(#filter87)"
     d="m 120.13822,269.95318 h 138.3026 v 23.0533 h -138.3026 v -23.0533" /></svg>
