<?xml version="1.0" encoding="UTF-8" standalone="no"?>
<svg
   viewBox="0 0 378.57324 398.32861"
   height="398.32861"
   width="378.57324"
   xml:space="preserve"
   id="svg2"
   version="1.1"
   xmlns="http://www.w3.org/2000/svg"
   xmlns:svg="http://www.w3.org/2000/svg"
   xmlns:rdf="http://www.w3.org/1999/02/22-rdf-syntax-ns#"
   xmlns:cc="http://creativecommons.org/ns#"
   xmlns:dc="http://purl.org/dc/elements/1.1/"><metadata
     id="metadata8"><rdf:RDF><cc:Work
         rdf:about=""><dc:format>image/svg+xml</dc:format><dc:type
           rdf:resource="http://purl.org/dc/dcmitype/StillImage" /></cc:Work></rdf:RDF></metadata><defs
     id="defs6"><filter
       style="color-interpolation-filters:sRGB"
       id="filter69"
       x="-0.013241725"
       y="-0.012568484"
       width="1.0264834"
       height="1.025137"><feGaussianBlur
         stdDeviation="2.0348453"
         id="feGaussianBlur69" /></filter><filter
       style="color-interpolation-filters:sRGB"
       id="filter70"
       x="-0.035311084"
       y="-0.21184627"
       width="1.0706222"
       height="1.4236925"><feGaussianBlur
         stdDeviation="2.0348453"
         id="feGaussianBlur70" /></filter><filter
       style="color-interpolation-filters:sRGB"
       id="filter71"
       x="-0.021186623"
       y="-0.21196306"
       width="1.0423732"
       height="1.4239261"><feGaussianBlur
         stdDeviation="2.0348453"
         id="feGaussianBlur71" /></filter><filter
       style="color-interpolation-filters:sRGB"
       id="filter72"
       x="-0.021186623"
       y="-0.21184077"
       width="1.0423732"
       height="1.4236815"><feGaussianBlur
         stdDeviation="2.0348453"
         id="feGaussianBlur72" /></filter><filter
       style="color-interpolation-filters:sRGB"
       id="filter73"
       x="-0.021186623"
       y="-0.21196306"
       width="1.0423732"
       height="1.4239261"><feGaussianBlur
         stdDeviation="2.0348453"
         id="feGaussianBlur73" /></filter><filter
       style="color-interpolation-filters:sRGB"
       id="filter74"
       x="-0.035311186"
       y="-0.21184077"
       width="1.0706224"
       height="1.4236815"><feGaussianBlur
         stdDeviation="2.0348453"
         id="feGaussianBlur74" /></filter></defs><path
     id="path1"
     style="fill:#474747;fill-opacity:1;fill-rule:nonzero;stroke:none;stroke-width:0.139289;filter:url(#filter69)"
     d="m 267.59842,330.5142 -4.8194,2.4654 c -22.8727,11.7143 -47.5993,17.6619 -73.4932,17.6619 -88.9697,0 -161.351403,-72.3886 -161.351403,-161.3527 0,-88.9641 72.381703,-161.352802 161.351403,-161.352802 88.9711,0 161.3528,72.388702 161.3528,161.352802 0,38.2767 -13.6406,75.3834 -38.4133,104.4809 l -3.8402,4.5269 13.9123,55.6461 z m 106.0911,-141.2254 c 0,-49.2527 -19.1815,-95.566402 -54.0122,-130.388802 -34.8279,-34.8362 -81.1346,-54.0163998 -130.3915,-54.0163998 -49.2555,0 -95.560803,19.1801998 -130.391503,54.0163998 -34.8293,34.8224 -54.0109003,81.136102 -54.0109003,130.388802 0,49.2666 19.1816003,95.5664 54.0109003,130.3887 34.8279,34.8363 81.136003,54.0164 130.391503,54.0164 27.7437,0 54.3228,-5.9894 79.094,-17.7872 l 87.5517,37.5384 -22.3392,-89.368 c 25.8995,-32.5241 40.0972,-73.0573 40.0972,-114.7883" /><path
     id="path2"
     style="fill:#474747;fill-opacity:1;fill-rule:nonzero;stroke:none;stroke-width:0.13434;filter:url(#filter70)"
     d="m 120.13672,85.557698 h 138.303 V 108.6104 h -138.303 V 85.557698" /><path
     id="path3"
     style="fill:#474747;fill-opacity:1;fill-rule:nonzero;stroke:none;stroke-width:0.133333;filter:url(#filter71)"
     d="M 74.036417,131.6598 H 304.54172 v 23.04 H 74.036417 v -23.04" /><path
     id="path4"
     style="fill:#474747;fill-opacity:1;fill-rule:nonzero;stroke:none;stroke-width:0.133333;filter:url(#filter72)"
     d="M 74.036417,177.7531 H 304.54172 v 23.0533 H 74.036417 v -23.0533" /><path
     id="path5"
     style="fill:#474747;fill-opacity:1;fill-rule:nonzero;stroke:none;stroke-width:0.133333;filter:url(#filter73)"
     d="M 74.036417,223.8598 H 304.54172 v 23.04 H 74.036417 v -23.04" /><path
     id="path6"
     style="fill:#474747;fill-opacity:1;fill-rule:nonzero;stroke:none;stroke-width:0.133333;filter:url(#filter74)"
     d="m 120.13782,269.9531 h 138.3026 v 23.0533 h -138.3026 v -23.0533" /></svg>
