<?xml version="1.0" encoding="UTF-8" standalone="no"?>
<svg
   viewBox="0 0 384.89844 405.01123"
   height="405.01123"
   width="384.89844"
   xml:space="preserve"
   id="svg2"
   version="1.1"
   xmlns="http://www.w3.org/2000/svg"
   xmlns:svg="http://www.w3.org/2000/svg"
   xmlns:rdf="http://www.w3.org/1999/02/22-rdf-syntax-ns#"
   xmlns:cc="http://creativecommons.org/ns#"
   xmlns:dc="http://purl.org/dc/elements/1.1/"><metadata
     id="metadata8"><rdf:RDF><cc:Work
         rdf:about=""><dc:format>image/svg+xml</dc:format><dc:type
           rdf:resource="http://purl.org/dc/dcmitype/StillImage" /></cc:Work></rdf:RDF></metadata><defs
     id="defs6"><filter
       style="color-interpolation-filters:sRGB"
       id="filter61"
       x="-0.021817417"
       y="-0.020708168"
       width="1.0436348"
       height="1.0423347"><feGaussianBlur
         stdDeviation="3.144332"
         id="feGaussianBlur61" /></filter></defs><g
     id="g25"
     transform="translate(-212.85416,-2519.0175)"
     style="fill:#d7e3f4;stroke:#000000;stroke-width:1;stroke-dasharray:none;stroke-opacity:1;filter:url(#filter61)"><path
       id="path20"
       style="fill:#d7e3f4;fill-opacity:1;fill-rule:nonzero;stroke:#000000;stroke-width:1;stroke-dasharray:none;stroke-opacity:1"
       d="m 483.61534,2852.6945 -4.81941,2.4654 c -22.8727,11.7143 -47.59934,17.6619 -73.49323,17.6619 -88.96967,0 -161.35137,-72.3886 -161.35137,-161.3527 0,-88.9641 72.3817,-161.3528 161.35137,-161.3528 88.97106,0 161.35276,72.3887 161.35276,161.3528 0,38.2767 -13.6406,75.3834 -38.41321,104.4809 l -3.84021,4.5269 13.91222,55.6461 z m 106.09111,-141.2254 c 0,-49.2527 -19.18153,-95.5664 -54.01222,-130.3888 -34.82791,-34.8362 -81.13464,-54.0164 -130.39153,-54.0164 -49.25549,0 -95.56084,19.1802 -130.39153,54.0164 -34.8293,34.8224 -54.01083,81.1361 -54.01083,130.3888 0,49.2666 19.18153,95.5664 54.01083,130.3887 34.82791,34.8363 81.13604,54.0164 130.39153,54.0164 27.74365,0 54.32284,-5.9894 79.09405,-17.7872 l 87.5517,37.5384 -22.33922,-89.368 c 25.89946,-32.5241 40.09722,-73.0573 40.09722,-114.7883" /><path
       id="path21"
       style="fill:#d7e3f4;fill-opacity:1;fill-rule:nonzero;stroke:#000000;stroke-width:1;stroke-dasharray:none;stroke-opacity:1"
       d="m 336.15361,2607.738 h 138.30303 v 23.0527 H 336.15361 v -23.0527" /><path
       id="path22"
       style="fill:#d7e3f4;fill-opacity:1;fill-rule:nonzero;stroke:#000000;stroke-width:1;stroke-dasharray:none;stroke-opacity:1"
       d="m 290.05333,2653.8401 h 230.50532 v 23.04 H 290.05333 v -23.04" /><path
       id="path23"
       style="fill:#d7e3f4;fill-opacity:1;fill-rule:nonzero;stroke:#000000;stroke-width:1;stroke-dasharray:none;stroke-opacity:1"
       d="m 290.05333,2699.9334 h 230.50532 v 23.0533 H 290.05333 v -23.0533" /><path
       id="path24"
       style="fill:#d7e3f4;fill-opacity:1;fill-rule:nonzero;stroke:#000000;stroke-width:1;stroke-dasharray:none;stroke-opacity:1"
       d="m 290.05333,2746.0401 h 230.50532 v 23.04 H 290.05333 v -23.04" /><path
       id="path25"
       style="fill:#d7e3f4;fill-opacity:1;fill-rule:nonzero;stroke:#000000;stroke-width:1;stroke-dasharray:none;stroke-opacity:1"
       d="m 336.15466,2792.1334 h 138.30266 v 23.0533 H 336.15466 v -23.0533" /></g></svg>
