<?xml version="1.0" encoding="UTF-8" standalone="no"?>
<svg
   viewBox="0 0 316.84522 401.63465"
   height="401.63464"
   width="316.84521"
   xml:space="preserve"
   id="svg2"
   version="1.1"
   xmlns="http://www.w3.org/2000/svg"
   xmlns:svg="http://www.w3.org/2000/svg"
   xmlns:rdf="http://www.w3.org/1999/02/22-rdf-syntax-ns#"
   xmlns:cc="http://creativecommons.org/ns#"
   xmlns:dc="http://purl.org/dc/elements/1.1/"><metadata
     id="metadata8"><rdf:RDF><cc:Work
         rdf:about=""><dc:format>image/svg+xml</dc:format><dc:type
           rdf:resource="http://purl.org/dc/dcmitype/StillImage" /></cc:Work></rdf:RDF></metadata><defs
     id="defs6"><filter
       style="color-interpolation-filters:sRGB"
       id="filter75"
       x="-0.051292319"
       y="-0.070626662"
       width="1.1025846"
       height="1.1412533"><feGaussianBlur
         stdDeviation="2.0348453"
         id="feGaussianBlur75" /></filter><filter
       style="color-interpolation-filters:sRGB"
       id="filter76"
       x="-0.029006062"
       y="-0.21182883"
       width="1.0580121"
       height="1.4236577"><feGaussianBlur
         stdDeviation="2.0348453"
         id="feGaussianBlur76" /></filter><filter
       style="color-interpolation-filters:sRGB"
       id="filter77"
       x="-0.015903556"
       y="-0.012462452"
       width="1.0318071"
       height="1.0249249"><feGaussianBlur
         stdDeviation="2.0348453"
         id="feGaussianBlur77" /></filter><filter
       style="color-interpolation-filters:sRGB"
       id="filter78"
       x="-0.068636468"
       y="-0.070627377"
       width="1.1372729"
       height="1.1412548"><feGaussianBlur
         stdDeviation="2.0348453"
         id="feGaussianBlur78" /></filter><filter
       style="color-interpolation-filters:sRGB"
       id="filter79"
       x="-0.067672532"
       y="-0.21196214"
       width="1.1353451"
       height="1.4239243"><feGaussianBlur
         stdDeviation="2.0348453"
         id="feGaussianBlur79" /></filter><filter
       style="color-interpolation-filters:sRGB"
       id="filter80"
       x="-0.10152969"
       y="-0.21183801"
       width="1.2030594"
       height="1.423676"><feGaussianBlur
         stdDeviation="2.0348453"
         id="feGaussianBlur80" /></filter><filter
       style="color-interpolation-filters:sRGB"
       id="filter81"
       x="-0.13539122"
       y="-0.21183985"
       width="1.2707824"
       height="1.4236797"><feGaussianBlur
         stdDeviation="2.0348453"
         id="feGaussianBlur81" /></filter></defs><path
     id="path7"
     style="fill:#474747;fill-opacity:1;fill-rule:nonzero;stroke:none;stroke-width:0.201848;filter:url(#filter75)"
     d="m 125.14979,97.09827 h -49.1096 v -23.0551 h 49.1096 z m 23.051,-46.1082 h -95.2117 v 69.1471 h 95.2117 v -69.1471" /><path
     id="path8"
     style="fill:#474747;fill-opacity:1;fill-rule:nonzero;stroke:none;stroke-width:0.206305;filter:url(#filter76)"
     d="m 52.48969,143.18937 h 168.3658 v 23.0546 H 52.48969 v -23.0546" /><path
     id="path9"
     style="fill:#474747;fill-opacity:1;fill-rule:nonzero;stroke:none;stroke-width:0.211895;filter:url(#filter77)"
     d="m 209.34099,304.01757 c -11.8237,-1.7461 -22.5668,-2.4262 -33.543,-0.5065 -13.2434,2.333 -25.4485,8.3063 -37.696,18.5726 3.0513,-10.9465 9.6412,-20.8123 19.0705,-28.2138 14.1122,-11.0651 32.2292,-14.9597 49.6893,-10.6795 0.6145,0.1462 1.229,0.2924 1.8435,0.4662 l 0.6357,0.1737 z m 36.0644,69.6794 H 27.93799 V 27.93787 h 145.3173 v 69.1603 h 72.1501 v 144.9063 l -8.6241,-6.6133 h -27.4403 v 24.7324 c -23.478,-4.8122 -47.5068,0.7882 -66.3866,15.6145 -18.9646,14.8792 -29.8348,36.9057 -29.8348,60.4535 v 14.4513 h 28.3939 l 3.3903,-3.4391 c 22.6939,-23.0923 38.3318,-24.12 64.4372,-19.8672 v 23.3063 h 27.4403 l 8.6241,-6.5984 z m -49.0959,-330.2802 31.9537,30.6272 h -31.9537 z m 36.0856,281.5614 v -63.9202 l 41.6797,31.9601 z m 79.5665,-31.9601 -43.502,-33.348 V 80.64457 L 189.42289,4.8836702 H 4.8837898 V 396.75107 H 268.45959 v -70.3871 l 43.502,-33.3459" /><path
     id="path10"
     style="fill:#474747;fill-opacity:1;fill-rule:nonzero;stroke:none;stroke-width:0.200372;filter:url(#filter78)"
     d="m 76.03269,212.33857 h 25.0465 v 23.0528 h -25.0465 z m -23.0428,46.1076 h 71.1521 v -69.1464 h -71.1521 v 69.1464" /><path
     id="path11"
     style="fill:#474747;fill-opacity:1;fill-rule:nonzero;stroke:none;stroke-width:0.206305;filter:url(#filter79)"
     d="m 148.68989,189.29657 h 72.1656 v 23.0401 h -72.1656 v -23.0401" /><path
     id="path12"
     style="fill:#474747;fill-opacity:1;fill-rule:nonzero;stroke:none;stroke-width:0.198927;filter:url(#filter80)"
     d="m 52.48269,281.49827 h 48.1005 v 23.0536 h -48.1005 v -23.0536" /><path
     id="path13"
     style="fill:#474747;fill-opacity:1;fill-rule:nonzero;stroke:none;stroke-width:0.198189;filter:url(#filter81)"
     d="m 52.49419,327.58957 h 36.0705 v 23.0534 h -36.0705 v -23.0534" /></svg>
