<?xml version="1.0" encoding="UTF-8" standalone="no"?>
<svg
   viewBox="0 0 322.97461 407.96021"
   height="407.96021"
   width="322.97461"
   xml:space="preserve"
   id="svg2"
   version="1.1"
   xmlns="http://www.w3.org/2000/svg"
   xmlns:svg="http://www.w3.org/2000/svg"
   xmlns:rdf="http://www.w3.org/1999/02/22-rdf-syntax-ns#"
   xmlns:cc="http://creativecommons.org/ns#"
   xmlns:dc="http://purl.org/dc/elements/1.1/"><metadata
     id="metadata8"><rdf:RDF><cc:Work
         rdf:about=""><dc:format>image/svg+xml</dc:format><dc:type
           rdf:resource="http://purl.org/dc/dcmitype/StillImage" /></cc:Work></rdf:RDF></metadata><defs
     id="defs6"><filter
       style="color-interpolation-filters:sRGB"
       id="filter62"
       x="-0.084510588"
       y="-0.11636637"
       width="1.1690212"
       height="1.2327327"><feGaussianBlur
         stdDeviation="3.144332"
         id="feGaussianBlur62" /></filter><filter
       style="color-interpolation-filters:sRGB"
       id="filter63"
       x="-0.047791159"
       y="-0.3490148"
       width="1.0955823"
       height="1.6980296"><feGaussianBlur
         stdDeviation="3.144332"
         id="feGaussianBlur63" /></filter><filter
       style="color-interpolation-filters:sRGB"
       id="filter64"
       x="-0.026203121"
       y="-0.020533468"
       width="1.0517686"
       height="1.0410669"><feGaussianBlur
         stdDeviation="3.144332"
         id="feGaussianBlur64" /></filter><filter
       style="color-interpolation-filters:sRGB"
       id="filter65"
       x="-0.11308727"
       y="-0.11636754"
       width="1.2261745"
       height="1.2327351"><feGaussianBlur
         stdDeviation="3.144332"
         id="feGaussianBlur65" /></filter><filter
       style="color-interpolation-filters:sRGB"
       id="filter66"
       x="-0.11149906"
       y="-0.34923445"
       width="1.2229981"
       height="1.6984689"><feGaussianBlur
         stdDeviation="3.144332"
         id="feGaussianBlur66" /></filter><filter
       style="color-interpolation-filters:sRGB"
       id="filter67"
       x="-0.16728302"
       y="-0.34902994"
       width="1.334566"
       height="1.6980599"><feGaussianBlur
         stdDeviation="3.144332"
         id="feGaussianBlur67" /></filter><filter
       style="color-interpolation-filters:sRGB"
       id="filter68"
       x="-0.22307416"
       y="-0.34903297"
       width="1.4461483"
       height="1.6980659"><feGaussianBlur
         stdDeviation="3.144332"
         id="feGaussianBlur68" /></filter></defs><path
     id="path27"
     style="fill:#d7e3f4;fill-opacity:1;fill-rule:nonzero;stroke:#000000;stroke-width:1;stroke-dasharray:none;stroke-opacity:1;filter:url(#filter62)"
     d="M 128.3124,100.26098 H 79.202801 V 77.205884 H 128.3124 Z m 23.051,-46.108196 H 56.151701 V 123.29988 H 151.3634 V 54.152784" /><path
     id="path28"
     style="fill:#d7e3f4;fill-opacity:1;fill-rule:nonzero;stroke:#000000;stroke-width:1;stroke-dasharray:none;stroke-opacity:1;filter:url(#filter63)"
     d="M 55.652301,146.35208 H 224.0181 v 23.0546 H 55.652301 v -23.0546" /><path
     id="path29"
     style="fill:#d7e3f4;fill-opacity:1;fill-rule:nonzero;stroke:#000000;stroke-width:1;stroke-dasharray:none;stroke-opacity:1;filter:url(#filter64)"
     d="m 212.5036,307.18028 c -11.8237,-1.7461 -22.5668,-2.4262 -33.543,-0.5065 -13.2434,2.333 -25.4485,8.3063 -37.696,18.5726 3.0513,-10.9465 9.6412,-20.8123 19.0705,-28.2138 14.1122,-11.0651 32.2292,-14.9597 49.6893,-10.6795 0.6145,0.1462 1.229,0.2924 1.8435,0.4662 l 0.6357,0.1737 z m 36.0644,69.6794 H 31.100601 V 31.100584 H 176.4179 v 69.160296 h 72.1501 v 144.9063 l -8.6241,-6.6133 h -27.4403 v 24.7324 c -23.478,-4.8122 -47.5068,0.7882 -66.3866,15.6145 -18.9646,14.8792 -29.8348,36.9057 -29.8348,60.4535 v 14.4513 h 28.3939 l 3.3903,-3.4391 c 22.6939,-23.0923 38.3318,-24.12 64.4372,-19.8672 v 23.3063 h 27.4403 l 8.6241,-6.5984 z m -49.0959,-330.280196 31.9537,30.6272 h -31.9537 z m 36.0856,281.561396 v -63.9202 l 41.6797,31.9601 z m 79.5665,-31.9601 -43.502,-33.348 V 83.807284 L 192.5855,8.0463844 H 8.046401 V 399.91378 H 271.6222 v -70.3871 l 43.502,-33.3459" /><path
     id="path31"
     style="fill:#d7e3f4;fill-opacity:1;fill-rule:nonzero;stroke:#000000;stroke-width:1;stroke-dasharray:none;stroke-opacity:1;filter:url(#filter65)"
     d="M 79.195301,215.50128 H 104.2418 v 23.0528 H 79.195301 Z m -23.0428,46.1076 H 127.3046 v -69.1464 H 56.152501 v 69.1464" /><path
     id="path32"
     style="fill:#d7e3f4;fill-opacity:1;fill-rule:nonzero;stroke:#000000;stroke-width:1;stroke-dasharray:none;stroke-opacity:1;filter:url(#filter66)"
     d="m 151.8525,192.45928 h 72.1656 v 23.0401 h -72.1656 v -23.0401" /><path
     id="path33"
     style="fill:#d7e3f4;fill-opacity:1;fill-rule:nonzero;stroke:#000000;stroke-width:1;stroke-dasharray:none;stroke-opacity:1;filter:url(#filter67)"
     d="M 55.645301,284.66098 H 103.7458 v 23.0536 H 55.645301 v -23.0536" /><path
     id="path35"
     style="fill:#d7e3f4;fill-opacity:1;fill-rule:nonzero;stroke:#000000;stroke-width:1;stroke-dasharray:none;stroke-opacity:1;filter:url(#filter68)"
     d="m 55.656801,330.75228 h 36.0705 v 23.0534 h -36.0705 v -23.0534" /></svg>
